<svg width="21" height="21" viewBox="0 0 21 21" fill="none" xmlns="http://www.w3.org/2000/svg">
<path d="M10.4904 0.916626C5.20044 0.916626 0.916687 5.20996 0.916687 10.5C0.916687 15.79 5.20044 20.0833 10.4904 20.0833C15.79 20.0833 20.0834 15.79 20.0834 10.5C20.0834 5.20996 15.79 0.916626 10.4904 0.916626ZM17.1317 6.66663H14.3046C14.0047 5.47969 13.5605 4.33394 12.9821 3.25496C14.7302 3.85679 16.2032 5.06786 17.1317 6.66663ZM10.5 2.87163C11.2954 4.02163 11.9184 5.29621 12.3304 6.66663H8.6696C9.08169 5.29621 9.7046 4.02163 10.5 2.87163ZM3.08252 12.4166C2.92919 11.8033 2.83335 11.1612 2.83335 10.5C2.83335 9.83871 2.92919 9.19663 3.08252 8.58329H6.32169C6.24502 9.21579 6.18752 9.84829 6.18752 10.5C6.18752 11.1516 6.24502 11.7841 6.32169 12.4166H3.08252ZM3.86835 14.3333H6.69544C7.0021 15.5312 7.44294 16.6812 8.01794 17.745C6.26799 17.1464 4.79394 15.9345 3.86835 14.3333ZM6.69544 6.66663H3.86835C4.79394 5.06542 6.26799 3.8535 8.01794 3.25496C7.43951 4.33394 6.99537 5.47969 6.69544 6.66663ZM10.5 18.1283C9.7046 16.9783 9.08169 15.7037 8.6696 14.3333H12.3304C11.9184 15.7037 11.2954 16.9783 10.5 18.1283ZM12.7425 12.4166H8.25752C8.17127 11.7841 8.10419 11.1516 8.10419 10.5C8.10419 9.84829 8.17127 9.20621 8.25752 8.58329H12.7425C12.8288 9.20621 12.8959 9.84829 12.8959 10.5C12.8959 11.1516 12.8288 11.7841 12.7425 12.4166ZM12.9821 17.745C13.5571 16.6812 13.9979 15.5312 14.3046 14.3333H17.1317C16.2032 15.9321 14.7302 17.1431 12.9821 17.745ZM14.6784 12.4166C14.755 11.7841 14.8125 11.1516 14.8125 10.5C14.8125 9.84829 14.755 9.21579 14.6784 8.58329H17.9175C18.0709 9.19663 18.1667 9.83871 18.1667 10.5C18.1667 11.1612 18.0709 11.8033 17.9175 12.4166H14.6784Z" fill="#010851"/>
</svg>
